<svg viewBox="0 0 275 275" width="32" xmlns="http://www.w3.org/2000/svg">
  <ellipse class="fill-[--accent-color]" cx="137.5" cy="137.5" rx="137.5" ry="137.5" transform="matrix(1, 0, 0, 1, -1.0658141036401503e-14, 3.552713678800501e-15)" style="fill: rgb(73, 78, 198);"/>
  <path class="fill-[--accent-a11y-color]" transform="matrix(1, 0, 0, 1, -1.0658141036401503e-14, 3.552713678800501e-15)" fill-rule="evenodd" clip-rule="evenodd" d="M 185.731 92.901 L 90.581 92.901 L 87.582 58.603 L 70.085 58.603 L 80.59 163.217 L 69.549 198.314 L 179.042 198.314 C 189.33 198.314 197.931 190.481 198.892 180.241 L 205.58 114.71 C 206.676 103.013 197.475 92.908 185.731 92.908 L 185.731 92.901 Z M 187.475 124.125 L 183.298 164.29 C 182.323 174.523 173.73 182.331 163.449 182.331 L 90.863 182.331 L 96.982 162.054 L 93.734 124.156 C 92.933 115.973 99.359 108.891 107.583 108.891 L 173.617 108.891 C 181.826 108.891 188.25 117.698 187.467 125.874 L 187.475 124.125 Z M 120.049 154.089 C 124.864 154.089 128.769 148.89 128.769 142.48 C 128.769 136.068 124.864 130.872 120.049 130.872 C 115.232 130.872 111.328 136.068 111.328 142.48 C 111.328 148.89 115.232 154.089 120.049 154.089 Z M 167.667 142.48 C 167.667 148.89 163.762 154.089 158.946 154.089 C 154.13 154.089 150.225 148.89 150.225 142.48 C 150.225 136.068 154.13 130.872 158.946 130.872 C 163.762 130.872 167.667 136.068 167.667 142.48 Z M 224.584 136.511 C 224.584 147.28 218.535 156.624 209.648 161.352 L 214.159 114.654 C 220.52 119.814 224.584 127.678 224.584 136.503 L 224.584 136.511 Z M 71.65 161.352 C 62.762 156.624 56.713 147.28 56.713 136.511 L 56.713 136.503 C 56.713 127.678 60.778 119.814 67.138 114.654 L 71.65 161.352 Z M 111.512 218.603 C 117.649 218.603 122.624 213.642 122.657 207.523 L 100.367 207.523 C 100.399 213.651 105.375 218.603 111.512 218.603 Z M 167.476 218.603 C 161.339 218.603 156.363 213.651 156.331 207.523 L 177.885 207.523 C 178.009 207.523 178.135 207.519 178.258 207.515 C 178.38 207.511 178.501 207.506 178.62 207.506 C 178.597 213.635 173.612 218.603 167.476 218.603 Z" style="fill: rgb(255, 255, 255);"/>
</svg>
