<?xml version="1.0" encoding="UTF-8"?><svg id="Layer_2" xmlns="http://www.w3.org/2000/svg" xmlns:xlink="http://www.w3.org/1999/xlink" viewBox="0 0 821.99 275.57"><defs><linearGradient id="linear-gradient" x1="144.555" y1="-11.8198" x2="144.555" y2="274.6802" gradientTransform="translate(0 274.6802) scale(1 -1)" gradientUnits="userSpaceOnUse"><stop offset="0" stop-color="#4f47e5"/><stop offset="1" stop-color="#8680ff"/></linearGradient></defs><g id="Components"><g id="_37de8956-5822-43e3-8c12-f78bebfc84d5_1"><path d="M222.19,59.07H58.32L53.15,0h-30.13l18.09,180.17-19.01,60.45h188.57c17.72,0,32.53-13.49,34.18-31.13l11.52-112.86c1.89-20.14-13.96-37.55-34.18-37.55v-.01ZM225.19,112.84l-7.19,69.17c-1.68,17.62-16.48,31.07-34.18,31.07H58.81l10.54-34.92-5.59-65.27c-1.38-14.1,9.69-26.29,23.85-26.29h113.73c14.14,0,25.2,15.17,23.85,29.25v-3.01ZM109.07,164.45c8.29,0,15.02-8.95,15.02-19.99s-6.72-19.99-15.02-19.99-15.02,8.95-15.02,19.99,6.72,19.99,15.02,19.99ZM191.08,144.46c0,11.04-6.72,19.99-15.02,19.99s-15.02-8.95-15.02-19.99,6.72-19.99,15.02-19.99,15.02,8.95,15.02,19.99ZM289.11,134.18c0,18.55-10.42,34.64-25.73,42.78l7.77-80.42c10.95,8.89,17.95,22.43,17.95,37.63l.01.01ZM25.72,176.96C10.41,168.82,0,152.72,0,134.18c0-15.21,7-28.76,17.95-37.64l7.77,80.42ZM94.37,275.56c10.57,0,19.14-8.54,19.19-19.08h-38.39c.06,10.55,8.63,19.08,19.19,19.08h.01ZM190.75,275.56c-10.57,0-19.14-8.53-19.19-19.08h37.12c.22,0,.43,0,.64-.01.21,0,.42-.01.62-.01-.04,10.55-8.62,19.11-19.19,19.11v-.01Z" style="fill:url(#linear-gradient); fill-rule:evenodd; stroke-width:0px;"/><path d="M794.02,97.71l-30.61,90-30.04-88.31-.57-1.69h-27.96l38.42,113.01h12.34l-14.69,43.2h27.96l53.12-156.21h-27.97Z" style="fill:#000000; stroke-width:0px;"/><path d="M661.03,97.71l-27.9301,36.21-27.93-36.21h-31.16l43.62,56.5-43.62,56.51h31.16l27.93-36.21,27.94,36.21h31.15l-43.62-56.51,43.63-56.5h-31.17Z" style="fill:#000000; stroke-width:0px;"/><path d="M543.22,173.31c-6.33,9.16-15.2,13.61-27.11,13.61-7.72,0-14.53-2.21-20.23-6.56l-.07-.05c-4.72-3.6-8.15-8.26-10.21-13.87h88.62l.32-2.13c.59-3.99.89-7.39.89-10.09,0-16.9-5.7-31.02-16.94-41.95-11.09-11.09-25.35-16.7099-42.37-16.7099s-31.35,5.6199-42.58,16.7099c-11.1,10.95-16.73,25.07-16.73,41.96s5.63,31.01,16.73,41.96c11.23,11.08,25.56,16.71,42.58,16.71,12.98,0,24.58-3.42,34.47-10.17,9.75-6.75,16.81-15.87,21.0099-27.1l1.26-3.37h-28.89l-.75,1.08v-.03ZM495.81,128.11c5.72-4.39,12.55-6.61,20.3-6.61s14.58,2.22,20.3,6.61l.1.08c4.67,3.59,8.07,8.22,10.12,13.8h-61.03c2.06-5.62,5.49-10.28,10.22-13.88h-.01Z" style="fill:#000000; stroke-width:0px;"/><path d="M392.19,95.55c-14.11,0-26.33,4.39-36.38,13.07v-54.12h-26.6v156.21h26.6v-10.91c10.05,8.68,22.28,13.07,36.38,13.07,16.05,0,29.59-5.64,40.26-16.75,10.78-11.23,16.25-25.33,16.25-41.91s-5.47-30.68-16.25-41.91c-10.67-11.12-24.21-16.75-40.25-16.75h-.01ZM413.78,179.03c-6.36,6.36-14.6,9.57-24.82,9.57s-18.46-3.21-24.82-9.57c-6.36-6.36-9.57-14.6-9.57-24.82s3.21-18.46,9.57-24.82c6.36-6.36,14.6-9.57,24.82-9.57s18.46,3.21,24.82,9.57c6.36,6.36,9.57,14.6,9.57,24.82s-3.21,18.46-9.57,24.82Z" style="fill:#000000; stroke-width:0px;"/></g></g></svg>
