<?xml version="1.0" encoding="utf-8"?>
<svg viewBox="0 0 826 276" fill="none" xmlns="http://www.w3.org/2000/svg">
  <path d="M335.133 55.75H333.883V57V208.215V209.465H335.133H356.735H357.985V208.215V196.983C368.224 206.743 380.793 211.625 395.619 211.625C411.352 211.625 424.501 206.17 434.973 195.255C445.581 184.205 450.874 170.494 450.874 154.21C450.874 137.926 445.581 124.215 434.972 113.164C424.501 102.25 411.352 96.7941 395.619 96.7941C380.793 96.7941 368.224 101.677 357.985 111.437V57V55.75H356.735H335.133ZM540.595 127.121C545.995 131.235 549.724 136.594 551.79 143.239H487.278C489.344 136.594 493.074 131.235 498.474 127.121L498.477 127.119C504.436 122.546 511.436 120.248 519.534 120.248C527.632 120.248 534.633 122.546 540.591 127.119L540.595 127.121ZM575.484 165.181H576.562L576.72 164.114C577.301 160.192 577.598 156.886 577.598 154.21C577.598 137.632 572.084 123.907 561.024 113.14C550.112 102.23 536.248 96.7941 519.534 96.7941C502.818 96.7941 488.884 102.232 477.828 113.14C466.911 123.909 461.471 137.634 461.471 154.21C461.471 170.786 466.911 184.51 477.828 195.28C488.884 206.188 502.818 211.625 519.534 211.625C532.291 211.625 543.559 208.322 553.29 201.687L553.297 201.682C562.871 195.054 569.726 186.206 573.847 175.169L574.477 173.482H572.676H548.697H548.042L547.669 174.021C541.151 183.451 531.828 188.171 519.534 188.171C511.436 188.171 504.436 185.874 498.477 181.301L498.474 181.298C493.074 177.184 489.344 171.825 487.278 165.181H575.484ZM665.688 98.9544H665.074L664.699 99.4408L636.525 135.962L608.352 99.4408L607.977 98.9544H607.362H582.52H579.976L581.53 100.968L622.633 154.21L581.53 207.451L579.976 209.465H582.52H607.362H607.977L608.352 208.979L636.525 172.458L664.699 208.979L665.074 209.465H665.688H690.531H693.075L691.52 207.451L650.418 154.21L691.52 100.968L693.075 98.9544H690.531H665.688ZM799.239 98.9544H798.344L798.055 99.8018L766.835 191.588L735.616 99.8018L735.327 98.9544H734.432H711.75H710.005L710.566 100.607L747.29 208.618L747.578 209.465H748.474H760.77L746.642 251.017L746.08 252.67H747.826H770.508H771.403L771.691 251.822L823.104 100.607L823.666 98.9544H821.921H799.239ZM417.201 179.032C410.841 185.393 402.604 188.603 392.379 188.603C382.153 188.603 373.917 185.393 367.556 179.032C361.195 172.672 357.985 164.436 357.985 154.21C357.985 143.984 361.195 135.748 367.556 129.387C373.917 123.026 382.153 119.816 392.379 119.816C402.604 119.816 410.841 123.026 417.201 129.387C423.562 135.748 426.772 143.984 426.772 154.21C426.772 164.436 423.562 172.672 417.201 179.032Z" stroke-width="2.5" style="paint-order: fill; stroke: rgb(255, 255, 255); fill: rgb(255, 255, 255);"/>
  <path fill-rule="evenodd" clip-rule="evenodd" d="M222.22 59.0683H58.3526L53.1856 0H23.0521L41.1432 180.167L22.1289 240.614H210.701C228.42 240.614 243.232 227.124 244.886 209.488L256.405 96.6285C258.292 76.4843 242.447 59.0821 222.22 59.0821V59.0683ZM225.224 112.842L218.031 182.017C216.35 199.64 201.552 213.088 183.847 213.088H58.8369L69.3753 178.167L63.7813 112.897C62.4034 98.8018 73.4676 86.6078 87.6318 86.6078H201.359C215.496 86.6078 226.56 101.774 225.21 115.856L225.224 112.842ZM109.101 164.447C117.395 164.447 124.119 155.496 124.119 144.454C124.119 133.412 117.395 124.462 109.101 124.462C100.806 124.462 94.082 133.412 94.082 144.454C94.082 155.496 100.806 164.447 109.101 164.447ZM191.11 144.454C191.11 155.496 184.386 164.447 176.091 164.447C167.796 164.447 161.072 155.496 161.072 144.454C161.072 133.412 167.796 124.462 176.091 124.462C184.386 124.462 191.11 133.412 191.11 144.454ZM289.135 134.175C289.135 152.721 278.718 168.814 263.41 176.957L271.181 96.5321C282.135 105.419 289.135 118.963 289.135 134.161V134.175ZM25.7479 176.957C10.44 168.814 0.0234375 152.721 0.0234375 134.175V134.161C0.0234375 118.963 7.02291 105.419 17.9768 96.5321L25.7479 176.957ZM94.3986 275.556C104.967 275.556 113.537 267.013 113.592 256.473H75.2051C75.2602 267.027 83.8305 275.556 94.3986 275.556ZM190.781 275.556C180.213 275.556 171.643 267.027 171.588 256.473H208.707C208.923 256.473 209.138 256.466 209.351 256.459C209.562 256.452 209.77 256.445 209.975 256.445C209.934 266.999 201.35 275.556 190.781 275.556Z" style="paint-order: fill; fill: rgb(255, 255, 255);"/>
</svg>
